M48
; DRILL file {KiCad 8.0.1} date 2024-04-11T14:17:04+0200
; FORMAT={-:-/ absolute / inch / decimal}
; #@! TF.CreationDate,2024-04-11T14:17:04+02:00
; #@! TF.GenerationSoftware,Kicad,Pcbnew,8.0.1
; #@! TF.FileFunction,Plated,1,2,PTH
FMAT,2
INCH
; #@! TA.AperFunction,Plated,PTH,ViaDrill
T1C0.0157
; #@! TA.AperFunction,Plated,PTH,ComponentDrill
T2C0.0315
; #@! TA.AperFunction,Plated,PTH,ComponentDrill
T3C0.0354
; #@! TA.AperFunction,Plated,PTH,ComponentDrill
T4C0.0394
%
G90
G05
T1
X1.6543Y-4.8754
X1.835Y-4.8409
X1.8755Y-6.0989
X1.904Y-4.546
X1.9242Y-5.1756
X1.9549Y-5.3669
X1.9559Y-5.2004
X1.9724Y-5.2433
X1.9963Y-5.5816
X2.0262Y-5.8291
X2.0466Y-5.4909
X2.0664Y-5.2251
X2.0695Y-5.7857
X2.0877Y-5.3219
X2.0957Y-5.6251
X2.1024Y-4.7591
X2.1194Y-5.0253
X2.1333Y-5.3835
X2.1341Y-5.1183
X2.1345Y-4.8972
X2.158Y-4.825
X2.16Y-4.865
X2.1758Y-4.3851
X2.186Y-4.7245
X2.1862Y-4.6803
X2.2087Y-4.5983
X2.2296Y-4.2564
X2.2296Y-4.3628
X2.2343Y-5.2772
X2.2391Y-5.9142
X2.2479Y-4.627
X2.2489Y-5.4774
X2.2704Y-5.217
X2.282Y-4.536
X2.295Y-5.074
X2.3113Y-4.8176
X2.317Y-4.686
X2.329Y-5.159
X2.3363Y-5.024
X2.3437Y-4.8418
X2.3536Y-5.5651
X2.3775Y-4.5013
X2.3952Y-4.7606
X2.3994Y-4.8
X2.3998Y-4.1138
X2.4009Y-4.8395
X2.4037Y-4.0638
X2.4123Y-4.5624
X2.4298Y-5.6341
X2.4335Y-5.2986
X2.4408Y-4.5353
X2.4712Y-4.6681
X2.4716Y-5.7274
X2.4758Y-4.7099
X2.486Y-5.1603
X2.5008Y-5.0941
X2.503Y-4.484
X2.5093Y-5.8291
X2.523Y-4.547
X2.5262Y-4.0283
X2.5402Y-5.3402
X2.5492Y-4.6709
X2.5619Y-5.3051
X2.5625Y-4.7103
X2.5716Y-5.3986
X2.5887Y-4.669
X2.612Y-5.303
X2.6157Y-4.9707
X2.631Y-4.68
X2.659Y-5.308
X2.6689Y-5.5651
X2.6798Y-5.438
X2.6894Y-5.1194
X2.718Y-4.68
X2.7286Y-5.0393
X2.7294Y-5.0965
X2.7306Y-3.9454
X2.7487Y-5.0036
X2.7599Y-4.9202
X2.7622Y-4.7594
X2.7663Y-5.1166
X2.7845Y-5.6341
X2.7902Y-4.7296
X2.7964Y-4.5657
X2.805Y-5.322
X2.8054Y-4.3111
X2.8083Y-5.2161
X2.8219Y-5.5253
X2.8231Y-4.3931
X2.8383Y-4.5643
X2.8425Y-4.512
X2.8634Y-5.242
X2.8683Y-5.3657
X2.8963Y-4.7505
X2.8965Y-5.2193
X2.9152Y-3.9803
X2.919Y-4.553
X2.955Y-5.1722
X2.9673Y-4.8814
X2.9686Y-5.3786
X3.002Y-4.8603
X3.017Y-5.115
X3.0933Y-4.0399
X3.1128Y-4.9919
X3.1224Y-5.1077
X3.123Y-5.325
X3.2176Y-4.4948
X3.258Y-4.271
X3.279Y-4.679
X3.3251Y-4.7707
X3.3308Y-4.4681
X3.343Y-4.4109
X3.3891Y-4.4287
X3.4017Y-4.0398
X3.41Y-5.3232
X3.4575Y-4.4783
X3.4782Y-4.5135
X3.4844Y-5.124
X3.5098Y-4.4356
X3.5263Y-5.0822
X3.575Y-5.1733
X3.5825Y-5.3565
X3.5962Y-4.3358
X3.6954Y-4.3695
X3.7694Y-4.3468
X3.7907Y-4.2322
X3.8661Y-4.5401
X3.9926Y-5.6721
X4.0257Y-4.0187
X4.0313Y-5.4037
X4.0657Y-4.3117
X4.08Y-3.9812
X4.099Y-5.5665
X4.1016Y-5.8769
X4.1337Y-4.5457
X4.1438Y-5.773
X4.2086Y-3.962
X4.2281Y-5.3558
X4.2646Y-5.793
X4.2888Y-5.7562
X4.3145Y-5.7926
X4.3222Y-4.5002
X4.3311Y-4.0002
X4.3606Y-5.7915
X4.3861Y-5.0806
X4.4077Y-4.9658
X4.4485Y-4.5287
X4.4864Y-5.8556
X4.4919Y-5.2907
X4.4937Y-6.0268
X4.5443Y-5.1976
X4.5463Y-5.5991
X4.5808Y-4.6782
X4.6153Y-5.8011
X4.628Y-5.1609
X4.6611Y-5.6298
X4.6629Y-4.7852
X4.6698Y-5.7369
X4.6709Y-5.7763
X4.6835Y-5.1033
X4.716Y-5.6738
X4.7841Y-5.5769
X4.8449Y-5.7841
X4.9462Y-5.7206
X4.9913Y-5.0806
X5.0175Y-4.3295
X5.2411Y-4.1344
X5.2575Y-5.5481
X5.267Y-5.6463
T2
X3.934Y-4.425
X3.934Y-5.025
X4.034Y-4.425
X4.034Y-5.025
X4.134Y-4.425
X4.134Y-5.025
X4.234Y-4.425
X4.234Y-5.025
X4.334Y-4.425
X4.334Y-5.025
X4.434Y-4.425
X4.434Y-5.025
X4.534Y-4.425
X4.534Y-5.025
X4.634Y-4.425
X4.634Y-5.025
X4.734Y-4.425
X4.734Y-5.025
X4.834Y-4.425
X4.834Y-5.025
X4.934Y-4.425
X4.934Y-5.025
X5.034Y-4.425
X5.034Y-5.025
X5.134Y-4.425
X5.134Y-5.025
X5.234Y-4.425
X5.234Y-5.025
T3
X1.5492Y-4.568
X1.6492Y-4.568
T4
X1.52Y-5.496
X1.52Y-5.596
X1.52Y-5.696
X1.52Y-5.796
X1.62Y-5.496
X1.62Y-5.596
X1.62Y-5.696
X1.62Y-5.796
X2.564Y-5.867
X2.564Y-5.967
X2.664Y-5.867
X2.664Y-5.967
X2.764Y-5.867
X2.764Y-5.967
X2.864Y-5.867
X2.864Y-5.967
X2.964Y-5.867
X2.964Y-5.967
X3.048Y-4.076
X3.048Y-4.176
X3.148Y-4.076
X3.148Y-4.176
X3.248Y-4.076
X3.248Y-4.176
X3.348Y-4.076
X3.348Y-4.176
X3.448Y-4.076
X3.448Y-4.176
X3.548Y-4.076
X3.548Y-4.176
X3.648Y-4.076
X3.648Y-4.176
X3.748Y-4.076
X3.748Y-4.176
X3.848Y-4.076
X3.848Y-4.176
X3.948Y-4.076
X3.948Y-4.176
X4.048Y-4.076
X4.048Y-4.176
X4.148Y-4.076
X4.148Y-4.176
X4.248Y-4.076
X4.248Y-4.176
X4.348Y-4.076
X4.348Y-4.176
X4.448Y-4.076
X4.448Y-4.176
X4.548Y-4.076
X4.548Y-4.176
X4.648Y-4.076
X4.648Y-4.176
X4.748Y-4.076
X4.748Y-4.176
X4.848Y-4.076
X4.848Y-4.176
X4.948Y-4.076
X4.948Y-4.176
X5.048Y-4.076
X5.048Y-4.176
X5.061Y-5.4
X5.061Y-5.5
X5.061Y-5.6
X5.061Y-5.7
X5.061Y-5.8
X5.148Y-4.076
X5.148Y-4.176
X5.161Y-5.4
X5.161Y-5.5
X5.161Y-5.6
X5.161Y-5.7
X5.161Y-5.8
M30
