G04 #@! TF.GenerationSoftware,KiCad,Pcbnew,8.0.1*
G04 #@! TF.CreationDate,2024-04-11T14:17:07+02:00*
G04 #@! TF.ProjectId,tipi,74697069-2e6b-4696-9361-645f70636258,2*
G04 #@! TF.SameCoordinates,Original*
G04 #@! TF.FileFunction,Copper,L1,Top*
G04 #@! TF.FilePolarity,Positive*
%FSLAX46Y46*%
G04 Gerber Fmt 4.6, Leading zero omitted, Abs format (unit mm)*
G04 Created by KiCad (PCBNEW 8.0.1) date 2024-04-11 14:17:07*
%MOMM*%
%LPD*%
G01*
G04 APERTURE LIST*
G04 Aperture macros list*
%AMRoundRect*
0 Rectangle with rounded corners*
0 $1 Rounding radius*
0 $2 $3 $4 $5 $6 $7 $8 $9 X,Y pos of 4 corners*
0 Add a 4 corners polygon primitive as box body*
4,1,4,$2,$3,$4,$5,$6,$7,$8,$9,$2,$3,0*
0 Add four circle primitives for the rounded corners*
1,1,$1+$1,$2,$3*
1,1,$1+$1,$4,$5*
1,1,$1+$1,$6,$7*
1,1,$1+$1,$8,$9*
0 Add four rect primitives between the rounded corners*
20,1,$1+$1,$2,$3,$4,$5,0*
20,1,$1+$1,$4,$5,$6,$7,0*
20,1,$1+$1,$6,$7,$8,$9,0*
20,1,$1+$1,$8,$9,$2,$3,0*%
G04 Aperture macros list end*
G04 #@! TA.AperFunction,SMDPad,CuDef*
%ADD10RoundRect,0.250000X0.475000X-0.337500X0.475000X0.337500X-0.475000X0.337500X-0.475000X-0.337500X0*%
G04 #@! TD*
G04 #@! TA.AperFunction,SMDPad,CuDef*
%ADD11RoundRect,0.250000X-0.475000X0.337500X-0.475000X-0.337500X0.475000X-0.337500X0.475000X0.337500X0*%
G04 #@! TD*
G04 #@! TA.AperFunction,ComponentPad*
%ADD12RoundRect,0.250000X-0.600000X0.600000X-0.600000X-0.600000X0.600000X-0.600000X0.600000X0.600000X0*%
G04 #@! TD*
G04 #@! TA.AperFunction,ComponentPad*
%ADD13C,1.700000*%
G04 #@! TD*
G04 #@! TA.AperFunction,ComponentPad*
%ADD14R,1.800000X1.800000*%
G04 #@! TD*
G04 #@! TA.AperFunction,ComponentPad*
%ADD15C,1.800000*%
G04 #@! TD*
G04 #@! TA.AperFunction,ComponentPad*
%ADD16RoundRect,0.250000X-0.600000X-0.600000X0.600000X-0.600000X0.600000X0.600000X-0.600000X0.600000X0*%
G04 #@! TD*
G04 #@! TA.AperFunction,ComponentPad*
%ADD17R,1.700000X1.700000*%
G04 #@! TD*
G04 #@! TA.AperFunction,ComponentPad*
%ADD18O,1.700000X1.700000*%
G04 #@! TD*
G04 #@! TA.AperFunction,SMDPad,CuDef*
%ADD19RoundRect,0.150000X-0.150000X0.587500X-0.150000X-0.587500X0.150000X-0.587500X0.150000X0.587500X0*%
G04 #@! TD*
G04 #@! TA.AperFunction,SMDPad,CuDef*
%ADD20RoundRect,0.250000X-0.450000X0.350000X-0.450000X-0.350000X0.450000X-0.350000X0.450000X0.350000X0*%
G04 #@! TD*
G04 #@! TA.AperFunction,SMDPad,CuDef*
%ADD21RoundRect,0.250000X0.450000X-0.350000X0.450000X0.350000X-0.450000X0.350000X-0.450000X-0.350000X0*%
G04 #@! TD*
G04 #@! TA.AperFunction,ComponentPad*
%ADD22R,1.600000X1.600000*%
G04 #@! TD*
G04 #@! TA.AperFunction,ComponentPad*
%ADD23O,1.600000X1.600000*%
G04 #@! TD*
G04 #@! TA.AperFunction,SMDPad,CuDef*
%ADD24R,0.400000X1.200000*%
G04 #@! TD*
G04 #@! TA.AperFunction,SMDPad,CuDef*
%ADD25RoundRect,0.250000X-0.337500X-0.475000X0.337500X-0.475000X0.337500X0.475000X-0.337500X0.475000X0*%
G04 #@! TD*
G04 #@! TA.AperFunction,SMDPad,CuDef*
%ADD26RoundRect,0.250000X0.337500X0.475000X-0.337500X0.475000X-0.337500X-0.475000X0.337500X-0.475000X0*%
G04 #@! TD*
G04 #@! TA.AperFunction,SMDPad,CuDef*
%ADD27RoundRect,0.075000X-0.662500X-0.075000X0.662500X-0.075000X0.662500X0.075000X-0.662500X0.075000X0*%
G04 #@! TD*
G04 #@! TA.AperFunction,SMDPad,CuDef*
%ADD28RoundRect,0.075000X-0.075000X-0.662500X0.075000X-0.662500X0.075000X0.662500X-0.075000X0.662500X0*%
G04 #@! TD*
G04 #@! TA.AperFunction,SMDPad,CuDef*
%ADD29RoundRect,0.250000X0.250000X0.750000X-0.250000X0.750000X-0.250000X-0.750000X0.250000X-0.750000X0*%
G04 #@! TD*
G04 #@! TA.AperFunction,SMDPad,CuDef*
%ADD30RoundRect,0.250000X0.750000X-0.250000X0.750000X0.250000X-0.750000X0.250000X-0.750000X-0.250000X0*%
G04 #@! TD*
G04 #@! TA.AperFunction,SMDPad,CuDef*
%ADD31RoundRect,0.375000X0.625000X0.375000X-0.625000X0.375000X-0.625000X-0.375000X0.625000X-0.375000X0*%
G04 #@! TD*
G04 #@! TA.AperFunction,SMDPad,CuDef*
%ADD32RoundRect,0.500000X0.500000X1.400000X-0.500000X1.400000X-0.500000X-1.400000X0.500000X-1.400000X0*%
G04 #@! TD*
G04 #@! TA.AperFunction,ViaPad*
%ADD33C,0.800000*%
G04 #@! TD*
G04 #@! TA.AperFunction,Conductor*
%ADD34C,0.250000*%
G04 #@! TD*
G04 #@! TA.AperFunction,Conductor*
%ADD35C,0.750000*%
G04 #@! TD*
G04 #@! TA.AperFunction,Conductor*
%ADD36C,0.399800*%
G04 #@! TD*
G04 APERTURE END LIST*
D10*
X51485800Y-130933100D03*
X51485800Y-128858100D03*
D11*
X47701200Y-151210100D03*
X47701200Y-153285100D03*
D12*
X75285600Y-149021800D03*
D13*
X75285600Y-151561800D03*
X72745600Y-149021800D03*
X72745600Y-151561800D03*
X70205600Y-149021800D03*
X70205600Y-151561800D03*
X67665600Y-149021800D03*
X67665600Y-151561800D03*
X65125600Y-149021800D03*
X65125600Y-151561800D03*
D14*
X41889600Y-116027200D03*
D15*
X39349600Y-116027200D03*
D16*
X128549400Y-137160000D03*
D13*
X131089400Y-137160000D03*
X128549400Y-139700000D03*
X131089400Y-139700000D03*
X128549400Y-142240000D03*
X131089400Y-142240000D03*
X128549400Y-144780000D03*
X131089400Y-144780000D03*
X128549400Y-147320000D03*
X131089400Y-147320000D03*
D17*
X38608000Y-139598400D03*
D18*
X41148000Y-139598400D03*
X38608000Y-142138400D03*
X41148000Y-142138400D03*
X38608000Y-144678400D03*
X41148000Y-144678400D03*
X38608000Y-147218400D03*
X41148000Y-147218400D03*
D19*
X43799800Y-120982500D03*
X41899800Y-120982500D03*
X42849800Y-122857500D03*
D20*
X41427400Y-127042900D03*
X41427400Y-129042900D03*
D21*
X39395400Y-129042900D03*
X39395400Y-127042900D03*
D22*
X99923600Y-127635000D03*
D23*
X102463600Y-127635000D03*
X105003600Y-127635000D03*
X107543600Y-127635000D03*
X110083600Y-127635000D03*
X112623600Y-127635000D03*
X115163600Y-127635000D03*
X117703600Y-127635000D03*
X120243600Y-127635000D03*
X122783600Y-127635000D03*
X125323600Y-127635000D03*
X127863600Y-127635000D03*
X130403600Y-127635000D03*
X132943600Y-127635000D03*
X132943600Y-112395000D03*
X130403600Y-112395000D03*
X127863600Y-112395000D03*
X125323600Y-112395000D03*
X122783600Y-112395000D03*
X120243600Y-112395000D03*
X117703600Y-112395000D03*
X115163600Y-112395000D03*
X112623600Y-112395000D03*
X110083600Y-112395000D03*
X107543600Y-112395000D03*
X105003600Y-112395000D03*
X102463600Y-112395000D03*
X99923600Y-112395000D03*
D24*
X107048300Y-148345200D03*
X107683300Y-148345200D03*
X108318300Y-148345200D03*
X108953300Y-148345200D03*
X109588300Y-148345200D03*
X110223300Y-148345200D03*
X110858300Y-148345200D03*
X111493300Y-148345200D03*
X112128300Y-148345200D03*
X112763300Y-148345200D03*
X112763300Y-143145200D03*
X112128300Y-143145200D03*
X111493300Y-143145200D03*
X110858300Y-143145200D03*
X110223300Y-143145200D03*
X109588300Y-143145200D03*
X108953300Y-143145200D03*
X108318300Y-143145200D03*
X107683300Y-143145200D03*
X107048300Y-143145200D03*
D11*
X51435000Y-120882500D03*
X51435000Y-122957500D03*
D20*
X66649600Y-137125200D03*
X66649600Y-139125200D03*
X69075900Y-137125200D03*
X69075900Y-139125200D03*
X71502200Y-137125200D03*
X71502200Y-139125200D03*
D10*
X48793400Y-104974300D03*
X48793400Y-102899300D03*
D11*
X48793400Y-107471300D03*
X48793400Y-109546300D03*
D25*
X78083500Y-127939800D03*
X80158500Y-127939800D03*
X64469100Y-112801400D03*
X66544100Y-112801400D03*
D26*
X60270300Y-112801400D03*
X58195300Y-112801400D03*
D25*
X78083500Y-130911600D03*
X80158500Y-130911600D03*
D10*
X103949500Y-145220600D03*
X103949500Y-143145600D03*
D11*
X96494600Y-125632300D03*
X96494600Y-127707300D03*
D27*
X56887200Y-118889000D03*
X56887200Y-119389000D03*
X56887200Y-119889000D03*
X56887200Y-120389000D03*
X56887200Y-120889000D03*
X56887200Y-121389000D03*
X56887200Y-121889000D03*
X56887200Y-122389000D03*
X56887200Y-122889000D03*
X56887200Y-123389000D03*
X56887200Y-123889000D03*
X56887200Y-124389000D03*
X56887200Y-124889000D03*
X56887200Y-125389000D03*
X56887200Y-125889000D03*
X56887200Y-126389000D03*
X56887200Y-126889000D03*
X56887200Y-127389000D03*
X56887200Y-127889000D03*
X56887200Y-128389000D03*
X56887200Y-128889000D03*
X56887200Y-129389000D03*
X56887200Y-129889000D03*
X56887200Y-130389000D03*
X56887200Y-130889000D03*
D28*
X58549700Y-132551500D03*
X59049700Y-132551500D03*
X59549700Y-132551500D03*
X60049700Y-132551500D03*
X60549700Y-132551500D03*
X61049700Y-132551500D03*
X61549700Y-132551500D03*
X62049700Y-132551500D03*
X62549700Y-132551500D03*
X63049700Y-132551500D03*
X63549700Y-132551500D03*
X64049700Y-132551500D03*
X64549700Y-132551500D03*
X65049700Y-132551500D03*
X65549700Y-132551500D03*
X66049700Y-132551500D03*
X66549700Y-132551500D03*
X67049700Y-132551500D03*
X67549700Y-132551500D03*
X68049700Y-132551500D03*
X68549700Y-132551500D03*
X69049700Y-132551500D03*
X69549700Y-132551500D03*
X70049700Y-132551500D03*
X70549700Y-132551500D03*
D27*
X72212200Y-130889000D03*
X72212200Y-130389000D03*
X72212200Y-129889000D03*
X72212200Y-129389000D03*
X72212200Y-128889000D03*
X72212200Y-128389000D03*
X72212200Y-127889000D03*
X72212200Y-127389000D03*
X72212200Y-126889000D03*
X72212200Y-126389000D03*
X72212200Y-125889000D03*
X72212200Y-125389000D03*
X72212200Y-124889000D03*
X72212200Y-124389000D03*
X72212200Y-123889000D03*
X72212200Y-123389000D03*
X72212200Y-122889000D03*
X72212200Y-122389000D03*
X72212200Y-121889000D03*
X72212200Y-121389000D03*
X72212200Y-120889000D03*
X72212200Y-120389000D03*
X72212200Y-119889000D03*
X72212200Y-119389000D03*
X72212200Y-118889000D03*
D28*
X70549700Y-117226500D03*
X70049700Y-117226500D03*
X69549700Y-117226500D03*
X69049700Y-117226500D03*
X68549700Y-117226500D03*
X68049700Y-117226500D03*
X67549700Y-117226500D03*
X67049700Y-117226500D03*
X66549700Y-117226500D03*
X66049700Y-117226500D03*
X65549700Y-117226500D03*
X65049700Y-117226500D03*
X64549700Y-117226500D03*
X64049700Y-117226500D03*
X63549700Y-117226500D03*
X63049700Y-117226500D03*
X62549700Y-117226500D03*
X62049700Y-117226500D03*
X61549700Y-117226500D03*
X61049700Y-117226500D03*
X60549700Y-117226500D03*
X60049700Y-117226500D03*
X59549700Y-117226500D03*
X59049700Y-117226500D03*
X58549700Y-117226500D03*
D29*
X99301300Y-143903700D03*
D30*
X47576700Y-142877300D03*
X50434200Y-142877300D03*
X47513200Y-140654800D03*
X50434200Y-140667500D03*
D20*
X38608000Y-151314900D03*
X38608000Y-153314900D03*
D31*
X44120200Y-109552100D03*
X44120200Y-107252100D03*
X44120200Y-104952100D03*
D32*
X37820200Y-107252100D03*
D17*
X77419200Y-106070400D03*
D18*
X77419200Y-103530400D03*
X79959200Y-106070400D03*
X79959200Y-103530400D03*
X82499200Y-106070400D03*
X82499200Y-103530400D03*
X85039200Y-106070400D03*
X85039200Y-103530400D03*
X87579200Y-106070400D03*
X87579200Y-103530400D03*
X90119200Y-106070400D03*
X90119200Y-103530400D03*
X92659200Y-106070400D03*
X92659200Y-103530400D03*
X95199200Y-106070400D03*
X95199200Y-103530400D03*
X97739200Y-106070400D03*
X97739200Y-103530400D03*
X100279200Y-106070400D03*
X100279200Y-103530400D03*
X102819200Y-106070400D03*
X102819200Y-103530400D03*
X105359200Y-106070400D03*
X105359200Y-103530400D03*
X107899200Y-106070400D03*
X107899200Y-103530400D03*
X110439200Y-106070400D03*
X110439200Y-103530400D03*
X112979200Y-106070400D03*
X112979200Y-103530400D03*
X115519200Y-106070400D03*
X115519200Y-103530400D03*
X118059200Y-106070400D03*
X118059200Y-103530400D03*
X120599200Y-106070400D03*
X120599200Y-103530400D03*
X123139200Y-106070400D03*
X123139200Y-103530400D03*
X125679200Y-106070400D03*
X125679200Y-103530400D03*
X128219200Y-106070400D03*
X128219200Y-103530400D03*
X130759200Y-106070400D03*
X130759200Y-103530400D03*
D33*
X64084200Y-115493800D03*
X57669000Y-132511800D03*
X71675100Y-140343000D03*
X75402051Y-136616049D03*
X63576200Y-113893600D03*
X49653500Y-136318000D03*
X57123100Y-139125000D03*
X56632100Y-110816000D03*
X53401800Y-120882000D03*
X86614400Y-135210000D03*
X79065800Y-126795000D03*
X48874800Y-131461000D03*
X55264200Y-111382000D03*
X67538600Y-134823200D03*
X79309700Y-129735000D03*
X48361600Y-115468000D03*
X58293000Y-128880000D03*
X83286600Y-118846600D03*
X66827400Y-118872000D03*
X56632100Y-108112000D03*
X69037200Y-118872000D03*
X71247000Y-135178800D03*
X59156600Y-131039000D03*
X46609000Y-122958000D03*
X79324200Y-135255000D03*
X82753200Y-108483400D03*
X96282700Y-107497000D03*
X104114000Y-141388000D03*
X65088100Y-119642000D03*
X65317500Y-137125000D03*
X72092000Y-115933000D03*
X84602900Y-113491000D03*
X71027300Y-115968000D03*
X112992000Y-115030000D03*
X74142600Y-115646200D03*
X84912400Y-112038000D03*
X81727500Y-114167000D03*
X109783000Y-114304000D03*
X98198600Y-115319000D03*
X72199500Y-114604000D03*
X78570200Y-102614000D03*
X87820300Y-113750000D03*
X88345900Y-114642000D03*
X89147800Y-112664000D03*
X86402500Y-102611000D03*
X65751900Y-118593000D03*
X95743400Y-110408000D03*
X111955000Y-126131000D03*
X93864200Y-110985000D03*
X71706000Y-111586000D03*
X64750100Y-118641000D03*
X89567600Y-129087000D03*
X104996000Y-115461000D03*
X70870600Y-120133000D03*
X91343000Y-110130000D03*
X61997400Y-115195532D03*
X62769100Y-118569000D03*
X53831900Y-127642000D03*
X50098400Y-133180000D03*
X52487500Y-132717000D03*
X60955600Y-104490000D03*
X103633000Y-101123000D03*
X49679000Y-132089000D03*
X61053100Y-103220000D03*
X58851800Y-119024000D03*
X106899000Y-100636000D03*
X64166300Y-102318000D03*
X56100300Y-116798000D03*
X74046900Y-101099000D03*
X61272400Y-115886000D03*
X60389700Y-114334000D03*
X110010000Y-101605000D03*
X102254000Y-102075000D03*
X57962800Y-115214000D03*
X69356200Y-100212000D03*
X57095500Y-117526000D03*
X121516000Y-141654000D03*
X133540000Y-140923000D03*
X125634000Y-145304000D03*
X115475000Y-142218000D03*
X118614000Y-145716000D03*
X133781000Y-143417000D03*
X133123000Y-105013000D03*
X126780000Y-129047000D03*
X118393000Y-142996000D03*
X119787000Y-144115000D03*
X127445000Y-109969000D03*
X62884500Y-119631000D03*
X70726900Y-143107000D03*
X61716300Y-143107000D03*
X63520800Y-129389000D03*
X102394000Y-137254000D03*
X55523400Y-120003000D03*
X54813200Y-122555000D03*
X47638600Y-154912000D03*
X114139000Y-153080000D03*
X55530200Y-118880000D03*
X54864000Y-123571000D03*
X56873100Y-150220000D03*
X56750889Y-134040680D03*
X60839000Y-120919000D03*
X70159500Y-120889000D03*
X52566300Y-146958000D03*
X62779300Y-145477000D03*
X73565300Y-120662000D03*
X64520619Y-135641936D03*
X63737000Y-148060000D03*
X75370200Y-123987000D03*
X51465200Y-148060000D03*
X54186200Y-136740000D03*
X68067900Y-138125000D03*
X76631800Y-129921000D03*
X54206000Y-130004000D03*
X70101500Y-124974000D03*
X88504600Y-130150000D03*
X61811200Y-134584000D03*
X71257100Y-109501000D03*
X103270000Y-109518000D03*
X76251300Y-123451000D03*
X84458700Y-121177000D03*
X86081900Y-112490000D03*
X65072892Y-134748908D03*
X63143700Y-131072000D03*
X105253000Y-146635000D03*
X111408000Y-129046000D03*
X72855300Y-136288000D03*
X104180000Y-149272000D03*
X67790300Y-141353000D03*
X90996750Y-136056350D03*
X59342400Y-127610000D03*
X59781300Y-141353000D03*
X101412000Y-144072000D03*
X66344800Y-134696200D03*
X66438600Y-126255000D03*
X115425000Y-132019000D03*
X90805800Y-131403000D03*
X108936000Y-146208000D03*
X109588000Y-147132000D03*
X116352000Y-118827000D03*
X68310100Y-130033000D03*
X118962000Y-129625000D03*
X75057000Y-131373000D03*
X73570700Y-132570000D03*
X113954000Y-148732000D03*
X117552000Y-131086000D03*
X69817700Y-127092000D03*
X69326900Y-129451000D03*
X107394000Y-136038000D03*
X118438000Y-121543000D03*
X108320000Y-147142000D03*
X71331700Y-132490000D03*
X110759000Y-147103000D03*
X72731000Y-133147000D03*
X114094000Y-134385000D03*
X69306700Y-127998000D03*
X123060000Y-146915000D03*
X118642000Y-146718000D03*
X54215100Y-124389000D03*
X70263700Y-129961000D03*
X117229000Y-147349000D03*
X42018900Y-123834000D03*
X60943800Y-121921000D03*
X50705500Y-141772000D03*
X60982800Y-122923000D03*
X53229800Y-142877000D03*
X59529300Y-122981000D03*
X53027500Y-135176000D03*
X58706100Y-122368000D03*
X51982700Y-139468000D03*
D34*
X48793400Y-107471300D02*
X48793400Y-107471000D01*
X64549700Y-117226500D02*
X64549700Y-115959300D01*
D35*
X42531700Y-107252000D02*
X42531700Y-111979000D01*
D34*
X64549700Y-115959300D02*
X64084200Y-115493800D01*
X53408800Y-120889000D02*
X53401800Y-120882000D01*
X63373000Y-130264000D02*
X58817464Y-130264000D01*
X51485800Y-130933100D02*
X51485800Y-130933000D01*
X76989900Y-129216000D02*
X78083500Y-129216000D01*
D35*
X69075900Y-139125000D02*
X70293800Y-140343000D01*
X78083500Y-127778000D02*
X78083500Y-127939800D01*
X49507500Y-153016000D02*
X71291000Y-153016000D01*
D34*
X71502200Y-139125200D02*
X71502200Y-139125000D01*
D35*
X79065800Y-126795000D02*
X78083500Y-127778000D01*
X42531700Y-111979000D02*
X51435000Y-120882000D01*
X66649600Y-139125000D02*
X57123100Y-139125000D01*
X86614400Y-135210000D02*
X85195650Y-136628750D01*
X54239800Y-139850000D02*
X50707200Y-136318000D01*
X54239800Y-143885000D02*
X47701200Y-150424000D01*
X69075900Y-139125000D02*
X66649600Y-139125000D01*
D34*
X44120200Y-107252100D02*
X44120200Y-107252000D01*
X57708700Y-132551500D02*
X57669000Y-132511800D01*
D35*
X71291000Y-153016000D02*
X72745600Y-151562000D01*
X53287200Y-107471000D02*
X48793400Y-107471000D01*
D34*
X59549700Y-117226000D02*
X59549700Y-113522000D01*
D35*
X69075900Y-139125000D02*
X71502200Y-139125000D01*
D34*
X59549700Y-117226500D02*
X59549700Y-117226000D01*
D35*
X85195650Y-136628750D02*
X75414752Y-136628750D01*
D34*
X56887200Y-120889000D02*
X53408800Y-120889000D01*
D35*
X75414752Y-136628750D02*
X75402051Y-136616049D01*
X57123100Y-139125000D02*
X54964900Y-139125000D01*
D34*
X59549700Y-113522000D02*
X60270300Y-112801000D01*
X63576200Y-113893600D02*
X63576200Y-112801000D01*
D35*
X49402600Y-130933000D02*
X51485800Y-130933000D01*
D34*
X47701200Y-151210100D02*
X47701200Y-151210000D01*
X72212200Y-127889000D02*
X75663100Y-127889000D01*
D35*
X37820200Y-107252000D02*
X42531700Y-107252000D01*
D34*
X69075900Y-139125200D02*
X69075900Y-139125000D01*
D35*
X63576200Y-112801000D02*
X60270300Y-112801000D01*
D34*
X58817464Y-130264000D02*
X57708800Y-131372664D01*
D35*
X56632100Y-110816000D02*
X53287200Y-107471000D01*
D34*
X64469100Y-112801400D02*
X64469100Y-112801000D01*
D35*
X78083500Y-130911600D02*
X78083500Y-130912000D01*
D34*
X60270300Y-112801400D02*
X60270300Y-112801000D01*
X57708800Y-131372664D02*
X57708800Y-132472000D01*
D35*
X58285100Y-110816000D02*
X56632100Y-110816000D01*
D34*
X57708800Y-132472000D02*
X57669000Y-132511800D01*
D35*
X78083500Y-127939800D02*
X78083500Y-129216000D01*
D34*
X64549700Y-131440000D02*
X63373000Y-130264000D01*
D35*
X54964900Y-139125000D02*
X54239800Y-139850000D01*
D34*
X64549700Y-132551500D02*
X64549700Y-132552000D01*
D35*
X47701200Y-150424000D02*
X47701200Y-151210000D01*
D34*
X75663100Y-127889000D02*
X76989900Y-129216000D01*
X72745600Y-151561800D02*
X72745600Y-151562000D01*
D35*
X70293800Y-140343000D02*
X71675100Y-140343000D01*
D34*
X75539600Y-130556000D02*
X75895200Y-130912000D01*
D35*
X51435000Y-120882000D02*
X53401800Y-120882000D01*
D34*
X72212200Y-130889000D02*
X73479400Y-130889000D01*
D35*
X47701200Y-151210000D02*
X49507500Y-153016000D01*
X50707200Y-136318000D02*
X49653500Y-136318000D01*
X42531700Y-107252000D02*
X44120200Y-107252000D01*
D34*
X75895200Y-130912000D02*
X78083500Y-130912000D01*
X58549700Y-132551500D02*
X57708700Y-132551500D01*
X73479400Y-130889000D02*
X73812400Y-130556000D01*
X66649600Y-139125200D02*
X66649600Y-139125000D01*
X51435000Y-120882500D02*
X51435000Y-120882000D01*
D35*
X54239800Y-139850000D02*
X54239800Y-143885000D01*
X78083500Y-129216000D02*
X78083500Y-130911600D01*
D34*
X37820200Y-107252100D02*
X37820200Y-107252000D01*
D35*
X48874800Y-131461000D02*
X49402600Y-130933000D01*
D34*
X73812400Y-130556000D02*
X75539600Y-130556000D01*
D35*
X60270300Y-112801000D02*
X58285100Y-110816000D01*
X64469100Y-112801000D02*
X63576200Y-112801000D01*
D34*
X64549700Y-132551500D02*
X64549700Y-131440000D01*
X73097700Y-121889000D02*
X73311700Y-122103000D01*
D35*
X102819200Y-106070000D02*
X102819000Y-106070000D01*
D34*
X67549700Y-134812100D02*
X67538600Y-134823200D01*
D35*
X113868000Y-150254000D02*
X115129000Y-148992000D01*
X50629000Y-113226000D02*
X50629000Y-109553000D01*
X48793300Y-102899000D02*
X48793400Y-102899000D01*
D34*
X80158500Y-130912000D02*
X80158300Y-130912000D01*
D35*
X107899200Y-106070000D02*
X107899000Y-106070000D01*
X110439000Y-106070000D02*
X107899200Y-106070000D01*
D34*
X42849800Y-122857500D02*
X42849800Y-122858000D01*
X55057400Y-127872000D02*
X55057400Y-127799000D01*
D35*
X80158300Y-130912000D02*
X80158500Y-130912000D01*
X128549000Y-147320000D02*
X127540000Y-148330000D01*
X47458300Y-109444000D02*
X47458300Y-104234000D01*
D34*
X48793500Y-109546200D02*
X48793500Y-109546100D01*
D35*
X43120100Y-122958000D02*
X43186500Y-123024000D01*
X48387000Y-115468000D02*
X50629000Y-113226000D01*
X47458300Y-109444000D02*
X48690900Y-109444000D01*
D34*
X56896600Y-128880000D02*
X56887200Y-128889000D01*
X71247000Y-135178800D02*
X79248000Y-135178800D01*
X54170500Y-126912000D02*
X52194900Y-126912000D01*
X85185400Y-120832000D02*
X85185400Y-125180000D01*
X103949500Y-145220600D02*
X103949600Y-145220600D01*
D35*
X53428200Y-109546000D02*
X55264200Y-111382000D01*
X114458000Y-147658000D02*
X113450000Y-147658000D01*
D34*
X73715700Y-108499000D02*
X72283600Y-108499000D01*
D35*
X38615500Y-153307500D02*
X38608000Y-153314900D01*
D34*
X50629000Y-109553000D02*
X50629000Y-109546000D01*
X105359200Y-106070400D02*
X105359200Y-106070000D01*
X73311700Y-125109000D02*
X79768000Y-125109000D01*
X69037200Y-118872000D02*
X69054200Y-118889000D01*
D35*
X73715700Y-108499000D02*
X72283600Y-108499000D01*
D34*
X44120200Y-109552100D02*
X44120200Y-109552000D01*
D35*
X80143500Y-129735000D02*
X80143500Y-130897000D01*
X82737600Y-108499000D02*
X73715700Y-108499000D01*
D34*
X51460400Y-122983000D02*
X51435000Y-122957600D01*
X83286600Y-118846600D02*
X85185400Y-120832000D01*
D35*
X80143500Y-130897000D02*
X80158300Y-130912000D01*
X105359200Y-106070000D02*
X102819200Y-106070000D01*
X44228500Y-109444000D02*
X44120200Y-109552000D01*
X56683700Y-112801000D02*
X55264200Y-111382000D01*
X44061800Y-122959000D02*
X44063300Y-122958000D01*
X61884200Y-108112000D02*
X56632100Y-108112000D01*
D34*
X73311700Y-122103000D02*
X73311700Y-125109000D01*
X112763300Y-148345200D02*
X112763200Y-148345200D01*
D35*
X51435000Y-122958000D02*
X46609000Y-122958000D01*
X82466000Y-125632000D02*
X81378800Y-126719000D01*
D34*
X75285800Y-151562000D02*
X75285600Y-151562000D01*
X110439200Y-106070400D02*
X110439000Y-106070200D01*
D35*
X102953000Y-146218000D02*
X102953000Y-149429000D01*
X100819000Y-151562000D02*
X75285800Y-151562000D01*
X48793400Y-109546000D02*
X48793500Y-109546100D01*
D34*
X107899200Y-106070000D02*
X107899000Y-106070000D01*
X96494600Y-125632300D02*
X96494600Y-125632000D01*
D35*
X96494600Y-125632000D02*
X84733500Y-125632000D01*
X51485800Y-128858000D02*
X51485800Y-127621000D01*
D34*
X38622900Y-153300000D02*
X38615500Y-153307500D01*
D35*
X47458300Y-104234000D02*
X48793300Y-102899000D01*
X82753200Y-108483400D02*
X82737600Y-108499000D01*
D34*
X48793400Y-109546300D02*
X48793500Y-109546200D01*
X61049700Y-132551500D02*
X61049700Y-131746000D01*
D35*
X102953000Y-149429000D02*
X100819000Y-151562000D01*
D34*
X48793400Y-102899300D02*
X48793400Y-102899000D01*
D35*
X66544100Y-112772000D02*
X61884200Y-108112000D01*
D34*
X80158500Y-130911600D02*
X80158500Y-130912000D01*
D35*
X47458300Y-109444000D02*
X44228500Y-109444000D01*
X48464200Y-154048000D02*
X47701200Y-153285000D01*
X38608000Y-153314900D02*
X38608000Y-153315000D01*
D34*
X52194900Y-126912000D02*
X51485800Y-127621000D01*
D35*
X102819000Y-106070000D02*
X100390000Y-108499000D01*
X75285600Y-151562000D02*
X72799300Y-154048000D01*
D34*
X67549700Y-132551500D02*
X67549700Y-134812100D01*
X73311700Y-125109000D02*
X73031300Y-125389000D01*
X56692800Y-112810000D02*
X56683700Y-112801000D01*
X72212200Y-121889000D02*
X73097700Y-121889000D01*
X38608000Y-153314900D02*
X38608000Y-153315000D01*
D35*
X42949800Y-122958000D02*
X43120100Y-122958000D01*
X48361600Y-115468000D02*
X48387000Y-115468000D01*
X48690900Y-109444000D02*
X48793400Y-109546000D01*
D34*
X51435000Y-122957600D02*
X51435000Y-122957500D01*
X102819200Y-106070400D02*
X102819200Y-106070000D01*
D35*
X115129000Y-148330000D02*
X114458000Y-147658000D01*
D34*
X79248000Y-135178800D02*
X79324200Y-135255000D01*
X56887200Y-128889000D02*
X56074300Y-128889000D01*
X58195300Y-112801400D02*
X58195300Y-112801000D01*
D35*
X58195300Y-112801000D02*
X56683700Y-112801000D01*
D34*
X73031300Y-125389000D02*
X72212200Y-125389000D01*
X61049700Y-131746000D02*
X60342700Y-131039000D01*
X110439000Y-106070000D02*
X107899200Y-106070000D01*
X55057400Y-127799000D02*
X54170500Y-126912000D01*
X58549700Y-117226000D02*
X56692800Y-115370000D01*
D35*
X72283600Y-108499000D02*
X70816900Y-108499000D01*
X51460400Y-122983000D02*
X51435000Y-122958000D01*
X48793400Y-109546000D02*
X50629000Y-109546000D01*
D34*
X48793400Y-102899000D02*
X48793300Y-102899000D01*
D35*
X103778000Y-150254000D02*
X113868000Y-150254000D01*
D34*
X47701200Y-153285100D02*
X47701200Y-153285000D01*
X69054200Y-118889000D02*
X72212200Y-118889000D01*
X66544100Y-112801400D02*
X66544100Y-112801000D01*
D35*
X43186500Y-123024000D02*
X43767700Y-123024000D01*
X127540000Y-148330000D02*
X115129000Y-148330000D01*
D34*
X56692800Y-115370000D02*
X56692800Y-112810000D01*
D35*
X84733500Y-125632000D02*
X82466000Y-125632000D01*
X80158500Y-127940000D02*
X80143500Y-127955000D01*
X75285800Y-151562000D02*
X75285600Y-151562000D01*
X82768800Y-108499000D02*
X82753200Y-108483400D01*
X70816900Y-108499000D02*
X66544100Y-112772000D01*
D34*
X72212200Y-118889000D02*
X83242200Y-118889000D01*
D35*
X38622900Y-153300000D02*
X38615500Y-153307500D01*
D34*
X79768000Y-125109000D02*
X81378800Y-126719000D01*
D35*
X80143500Y-127955000D02*
X80143500Y-129735000D01*
D34*
X66549700Y-117226000D02*
X66549700Y-117226500D01*
X66549700Y-118594000D02*
X66827400Y-118872000D01*
X51485800Y-128858000D02*
X51485800Y-128858100D01*
X61049700Y-132552000D02*
X61049700Y-132551500D01*
D35*
X51485800Y-127621000D02*
X51485800Y-123008000D01*
X100390000Y-108499000D02*
X82768800Y-108499000D01*
X81378800Y-126719000D02*
X80158500Y-127940000D01*
X115129000Y-148992000D02*
X115129000Y-148330000D01*
D34*
X85185400Y-125180000D02*
X84733500Y-125632000D01*
D35*
X47701200Y-153285000D02*
X38637800Y-153285000D01*
D34*
X112763200Y-148345200D02*
X112763000Y-148345000D01*
D35*
X50629000Y-109546000D02*
X53428200Y-109546000D01*
D34*
X80158500Y-127939800D02*
X80158500Y-127940000D01*
X128549400Y-147320000D02*
X128549000Y-147320000D01*
X107899200Y-106070400D02*
X107899200Y-106070000D01*
X58293000Y-128880000D02*
X56896600Y-128880000D01*
X83242200Y-118889000D02*
X83286600Y-118846600D01*
X56074300Y-128889000D02*
X55057400Y-127872000D01*
D35*
X44063300Y-122958000D02*
X46609000Y-122958000D01*
D36*
X113144000Y-147965000D02*
X112763000Y-148345000D01*
D34*
X110439000Y-106070200D02*
X110439000Y-106070000D01*
D35*
X102953000Y-149429000D02*
X103778000Y-150254000D01*
X72799300Y-154048000D02*
X48464200Y-154048000D01*
X43767700Y-123024000D02*
X43832600Y-122959000D01*
D34*
X60342700Y-131039000D02*
X59156600Y-131039000D01*
X66549700Y-117226500D02*
X66549700Y-118594000D01*
X103949600Y-145220600D02*
X103950000Y-145221000D01*
X58549700Y-117226500D02*
X58549700Y-117226000D01*
D35*
X107899000Y-106070000D02*
X105359200Y-106070000D01*
X66544100Y-112772000D02*
X66544100Y-112801000D01*
X42849800Y-122858000D02*
X42949800Y-122958000D01*
D34*
X75285600Y-151561800D02*
X75285600Y-151562000D01*
D35*
X51485800Y-123008000D02*
X51460400Y-122983000D01*
X43832600Y-122959000D02*
X44061800Y-122959000D01*
X103950000Y-145221000D02*
X102953000Y-146218000D01*
X113450000Y-147658000D02*
X113144000Y-147965000D01*
D34*
X38615500Y-153307500D02*
X38608000Y-153314900D01*
D35*
X48793500Y-109546100D02*
X48797600Y-109550000D01*
X80143500Y-129735000D02*
X79309700Y-129735000D01*
X38637800Y-153285000D02*
X38622900Y-153300000D01*
D34*
X107048200Y-143145200D02*
X107048000Y-143145000D01*
D36*
X106906000Y-143145000D02*
X107048000Y-143145000D01*
D34*
X107048300Y-143145200D02*
X107048200Y-143145200D01*
X39395400Y-129042900D02*
X39395400Y-129043000D01*
D35*
X77419200Y-106070000D02*
X49889500Y-106070000D01*
X36194200Y-105439000D02*
X36194200Y-125842000D01*
X96566900Y-127635000D02*
X96494600Y-127707000D01*
D34*
X103949500Y-143145600D02*
X103949600Y-143145600D01*
D35*
X36194200Y-125842000D02*
X39395400Y-129043000D01*
D34*
X48793400Y-104974300D02*
X48793400Y-104974000D01*
D35*
X99923600Y-127635000D02*
X96566900Y-127635000D01*
X47146200Y-101724000D02*
X44120200Y-104750000D01*
X50155300Y-102262000D02*
X49618100Y-101724000D01*
X44120200Y-104750000D02*
X44120200Y-104952000D01*
X36882400Y-104750000D02*
X36194200Y-105439000D01*
X49618100Y-101724000D02*
X47146200Y-101724000D01*
X44120200Y-104750000D02*
X36882400Y-104750000D01*
X50155300Y-103612000D02*
X50155300Y-102262000D01*
D34*
X96494600Y-127707300D02*
X96494600Y-127707000D01*
D35*
X49889500Y-106070000D02*
X48793400Y-104974000D01*
X106828000Y-143067000D02*
X104114000Y-143067000D01*
X104114000Y-143067000D02*
X104028000Y-143067000D01*
X104114000Y-143067000D02*
X104114000Y-141388000D01*
X96282700Y-107497000D02*
X78845900Y-107497000D01*
D34*
X44120200Y-104952100D02*
X44120200Y-104952000D01*
D35*
X106906000Y-143145000D02*
X106828000Y-143067000D01*
D34*
X103949600Y-143145600D02*
X103950000Y-143146000D01*
X77419200Y-106070400D02*
X77419200Y-106070000D01*
D35*
X48793400Y-104974000D02*
X50155300Y-103612000D01*
X104028000Y-143067000D02*
X103950000Y-143146000D01*
X78845900Y-107497000D02*
X77419200Y-106070000D01*
X99923600Y-127635000D02*
X99923600Y-112395000D01*
D34*
X75285600Y-140509000D02*
X71901400Y-137125000D01*
X75285600Y-149022000D02*
X75285600Y-149021800D01*
X75285600Y-149021800D02*
X75285600Y-140509000D01*
X71502300Y-137125000D02*
X71502200Y-137125000D01*
X69549700Y-135173000D02*
X69549700Y-132552000D01*
X69549700Y-132552000D02*
X69549700Y-132551500D01*
X71502400Y-137125000D02*
X71502300Y-137125000D01*
X71901400Y-137125000D02*
X71502400Y-137125000D01*
X71502300Y-137125000D02*
X71502200Y-137125000D01*
X71502300Y-137125000D02*
X71502200Y-137125100D01*
X71502400Y-137125000D02*
X71502300Y-137125000D01*
X71502200Y-137125100D02*
X71502200Y-137125200D01*
X71502200Y-137125000D02*
X69549700Y-135173000D01*
X67894200Y-118876000D02*
X67894200Y-119642000D01*
X67049700Y-118032000D02*
X67894200Y-118876000D01*
X67049700Y-117226000D02*
X67049700Y-117226500D01*
X67049700Y-117226500D02*
X67049700Y-118032000D01*
X67894200Y-119642000D02*
X65088100Y-119642000D01*
X72184000Y-138125000D02*
X72571800Y-138513000D01*
X69325800Y-137375000D02*
X69075900Y-137125000D01*
X69075900Y-137125000D02*
X69049700Y-137099000D01*
X69575900Y-137625000D02*
X69075900Y-137125000D01*
X69325800Y-137375000D02*
X69325700Y-137375000D01*
X70205700Y-149021900D02*
X70205700Y-149022000D01*
X69575900Y-137625000D02*
X69575700Y-137625000D01*
X69049700Y-137099000D02*
X69049700Y-132552000D01*
X72571800Y-138513000D02*
X72571800Y-146656000D01*
X70205600Y-149021800D02*
X70205700Y-149021900D01*
X69575900Y-137625000D02*
X70075900Y-138125000D01*
X72571800Y-146656000D02*
X70205700Y-149022000D01*
X69325700Y-137375000D02*
X69075900Y-137125200D01*
X69575700Y-137625000D02*
X69325800Y-137375000D01*
X69049700Y-132552000D02*
X69049700Y-132551500D01*
X70075900Y-138125000D02*
X72184000Y-138125000D01*
X66649600Y-137125100D02*
X66649600Y-137125200D01*
X66649500Y-137125000D02*
X66649600Y-137125000D01*
X66649600Y-137125000D02*
X68529200Y-135245400D01*
X66649400Y-137125000D02*
X66649500Y-137125000D01*
X68529200Y-133836264D02*
X68049700Y-133356764D01*
X68529200Y-135245400D02*
X68529200Y-133836264D01*
X66649500Y-137125000D02*
X66649600Y-137125000D01*
X68049700Y-133356764D02*
X68049700Y-132551500D01*
X65317500Y-137125000D02*
X66649400Y-137125000D01*
X66649400Y-137125000D02*
X66649500Y-137125000D01*
X66649500Y-137125000D02*
X66649600Y-137125100D01*
X72092000Y-115933000D02*
X70798600Y-117226000D01*
X70550200Y-117226000D02*
X70549700Y-117226500D01*
X70798600Y-117226000D02*
X70550200Y-117226000D01*
X101194000Y-112794000D02*
X102682000Y-114282000D01*
X102682000Y-114282000D02*
X105799000Y-114282000D01*
X87214300Y-113024000D02*
X88480000Y-113024000D01*
X85593900Y-113668000D02*
X86570000Y-113668000D01*
X97287700Y-113391000D02*
X99410000Y-111268000D01*
X88480000Y-113024000D02*
X88846900Y-113391000D01*
X101194000Y-112068000D02*
X101194000Y-112794000D01*
X84878000Y-113216000D02*
X85142200Y-113216000D01*
X105799000Y-114282000D02*
X106547000Y-115030000D01*
X69549700Y-117226000D02*
X69549700Y-116354000D01*
X99410000Y-111268000D02*
X100394000Y-111268000D01*
X88846900Y-113391000D02*
X97287700Y-113391000D01*
X106547000Y-115030000D02*
X112992000Y-115030000D01*
X85142200Y-113216000D02*
X85593900Y-113668000D01*
X100394000Y-111268000D02*
X101194000Y-112068000D01*
X69549700Y-116354000D02*
X69935600Y-115968000D01*
X69549700Y-117226000D02*
X69549700Y-117226500D01*
X69935600Y-115968000D02*
X71027300Y-115968000D01*
X84602900Y-113491000D02*
X84878000Y-113216000D01*
X86570000Y-113668000D02*
X87214300Y-113024000D01*
X70280600Y-118300000D02*
X71488800Y-118300000D01*
X70049700Y-117226500D02*
X70049700Y-118069000D01*
X71488800Y-118300000D02*
X74142600Y-115646200D01*
X70049700Y-117226500D02*
X70049700Y-117226000D01*
X70049700Y-118069000D02*
X70280600Y-118300000D01*
X68549700Y-117226000D02*
X68549700Y-117226500D01*
X106274000Y-112720000D02*
X107857000Y-114304000D01*
X68549700Y-116077000D02*
X70772600Y-113854000D01*
X68549700Y-117226000D02*
X68549700Y-116077000D01*
X106274000Y-112035000D02*
X106274000Y-112720000D01*
X107857000Y-114304000D02*
X109783000Y-114304000D01*
X97515500Y-111760000D02*
X98916500Y-110359000D01*
X90667900Y-111760000D02*
X97515500Y-111760000D01*
X104598000Y-110359000D02*
X106274000Y-112035000D01*
X81414600Y-113854000D02*
X81727500Y-114167000D01*
X98916500Y-110359000D02*
X104598000Y-110359000D01*
X85991800Y-111763000D02*
X86269200Y-111485000D01*
X70772600Y-113854000D02*
X81414600Y-113854000D01*
X90392900Y-111485000D02*
X90667900Y-111760000D01*
X84912400Y-112038000D02*
X85187500Y-111763000D01*
X86269200Y-111485000D02*
X90392900Y-111485000D01*
X85187500Y-111763000D02*
X85991800Y-111763000D01*
X98198600Y-115319000D02*
X98135600Y-115382000D01*
X69049700Y-116216000D02*
X70661100Y-114604000D01*
X81322500Y-104018000D02*
X82011700Y-104707000D01*
X69049700Y-117226000D02*
X69049700Y-117226500D01*
X78830000Y-102354000D02*
X80511600Y-102354000D01*
X82986700Y-104707000D02*
X83862500Y-103831000D01*
X69049700Y-117226000D02*
X69049700Y-116216000D01*
X77977600Y-114604000D02*
X72199500Y-114604000D01*
X78755600Y-115382000D02*
X77977600Y-114604000D01*
X85038800Y-103530000D02*
X85039200Y-103530400D01*
X80511600Y-102354000D02*
X81322500Y-103165000D01*
X82011700Y-104707000D02*
X82986700Y-104707000D01*
X83862500Y-103530000D02*
X85038800Y-103530000D01*
X70661100Y-114604000D02*
X72199500Y-114604000D01*
X81322500Y-103165000D02*
X81322500Y-104018000D01*
X78570200Y-102614000D02*
X78830000Y-102354000D01*
X83862500Y-103831000D02*
X83862500Y-103530000D01*
X98135600Y-115382000D02*
X78755600Y-115382000D01*
X84903900Y-114218000D02*
X85204500Y-113918000D01*
X70398400Y-112950000D02*
X83034400Y-112950000D01*
X67549700Y-117226000D02*
X67549700Y-117226500D01*
X67621200Y-115728000D02*
X70398400Y-112950000D01*
X67549700Y-117226000D02*
X67549700Y-115799000D01*
X67549700Y-115799000D02*
X67621100Y-115728000D01*
X85204500Y-113918000D02*
X85204600Y-113918000D01*
X85406800Y-114120000D02*
X87451000Y-114120000D01*
X83034400Y-112950000D02*
X84302000Y-114218000D01*
X85204600Y-113918000D02*
X85406800Y-114120000D01*
X87451000Y-114120000D02*
X87820300Y-113750000D01*
X84302000Y-114218000D02*
X84903900Y-114218000D01*
X67621100Y-115728000D02*
X67621200Y-115728000D01*
X70585500Y-113402000D02*
X82014800Y-113402000D01*
X83282400Y-114670000D02*
X88317700Y-114670000D01*
X82014800Y-113402000D02*
X83282400Y-114670000D01*
X68049700Y-115938000D02*
X70585500Y-113402000D01*
X68049700Y-117226000D02*
X68049700Y-117226500D01*
X68049700Y-117226000D02*
X68049700Y-115938000D01*
X88317700Y-114670000D02*
X88345900Y-114642000D01*
X84611500Y-112765000D02*
X85329400Y-112765000D01*
X67179900Y-115530000D02*
X70347900Y-112362000D01*
X70347900Y-112362000D02*
X84209100Y-112362000D01*
X86808600Y-112790000D02*
X87109500Y-112490000D01*
X88973500Y-112490000D02*
X89147800Y-112664000D01*
X66939622Y-115530000D02*
X67179900Y-115530000D01*
X84209100Y-112362000D02*
X84611500Y-112765000D01*
X85355200Y-112790000D02*
X85781000Y-113216000D01*
X66049700Y-116420000D02*
X66939622Y-115530000D01*
X85781000Y-113216000D02*
X86382900Y-113216000D01*
X86382900Y-113216000D02*
X86808600Y-112791000D01*
X87109500Y-112490000D02*
X88973500Y-112490000D01*
X85329400Y-112765000D02*
X85355200Y-112790000D01*
X86808600Y-112791000D02*
X86808600Y-112790000D01*
X66049700Y-117226500D02*
X66049700Y-116420000D01*
X65549700Y-118391000D02*
X65751900Y-118593000D01*
X65549700Y-117226500D02*
X65549700Y-118391000D01*
X86402500Y-102611000D02*
X86702300Y-102311200D01*
X65549700Y-117226000D02*
X65549700Y-117226500D01*
X91440000Y-102311200D02*
X92659200Y-103530400D01*
X86702300Y-102311200D02*
X91440000Y-102311200D01*
X65049700Y-117226500D02*
X65049700Y-116383000D01*
X95593800Y-110258000D02*
X95743400Y-110408000D01*
X66352100Y-115080000D02*
X66961800Y-115080000D01*
X91644000Y-110857000D02*
X92242900Y-110258000D01*
X85617500Y-110859000D02*
X85894900Y-110582000D01*
X85894900Y-110582000D02*
X90767100Y-110582000D01*
X91042100Y-110857000D02*
X91644000Y-110857000D01*
X71182800Y-110859000D02*
X85617500Y-110859000D01*
X66961800Y-115080000D02*
X71182800Y-110859000D01*
X65049700Y-116383000D02*
X66352100Y-115080000D01*
X90767100Y-110582000D02*
X91042100Y-110857000D01*
X92242900Y-110258000D02*
X95593800Y-110258000D01*
X71706000Y-111586000D02*
X71981100Y-111311000D01*
X120244000Y-127635000D02*
X120243600Y-127635000D01*
X119117000Y-127635000D02*
X119117000Y-127353000D01*
X64049700Y-117226000D02*
X64049700Y-117226500D01*
X93540300Y-111309000D02*
X93864200Y-110985000D01*
X64049700Y-117226500D02*
X64049700Y-118037000D01*
X119117000Y-127353000D02*
X117895000Y-126131000D01*
X85804700Y-111311000D02*
X86082100Y-111034000D01*
X71981100Y-111311000D02*
X85804700Y-111311000D01*
X120243600Y-127635000D02*
X119117000Y-127635000D01*
X90855000Y-111309000D02*
X93540300Y-111309000D01*
X86082100Y-111034000D02*
X90580000Y-111034000D01*
X90580000Y-111034000D02*
X90855000Y-111309000D01*
X64049700Y-118037000D02*
X64653600Y-118641000D01*
X117895000Y-126131000D02*
X111955000Y-126131000D01*
X64653600Y-118641000D02*
X64750100Y-118641000D01*
X100536000Y-129087000D02*
X89567600Y-129087000D01*
X104996000Y-115461000D02*
X101194000Y-119263000D01*
X101194000Y-128429000D02*
X100536000Y-129087000D01*
X64787200Y-120369000D02*
X63549700Y-119132000D01*
X101194000Y-119263000D02*
X101194000Y-128429000D01*
X70870600Y-120133000D02*
X66861400Y-120133000D01*
X66861400Y-120133000D02*
X66624900Y-120369000D01*
X63549700Y-117226500D02*
X63549700Y-117226000D01*
X63549700Y-119132000D02*
X63549700Y-117226500D01*
X66624900Y-120369000D02*
X64787200Y-120369000D01*
X106715000Y-103838000D02*
X106715000Y-103043000D01*
X63897216Y-114668600D02*
X63049700Y-114668600D01*
X111801000Y-108333000D02*
X113750000Y-110282000D01*
X99724800Y-104707000D02*
X105847000Y-104707000D01*
X113750000Y-120302000D02*
X107544000Y-126508000D01*
X105847000Y-104707000D02*
X106715000Y-103838000D01*
X85585700Y-110130000D02*
X85308300Y-110408000D01*
X97739600Y-103530000D02*
X98915900Y-103530000D01*
X113750000Y-110282000D02*
X113750000Y-120302000D01*
X106715000Y-103043000D02*
X107421000Y-102337000D01*
X63049700Y-114668600D02*
X63049700Y-117226500D01*
X107544000Y-126508000D02*
X107544000Y-126790000D01*
X91343000Y-110130000D02*
X85585700Y-110130000D01*
X70973400Y-110408000D02*
X67056000Y-114325400D01*
X107543600Y-126790400D02*
X107543600Y-127635000D01*
X85308300Y-110408000D02*
X70973400Y-110408000D01*
X107544000Y-126790000D02*
X107543600Y-126790400D01*
X98915900Y-103530000D02*
X98915900Y-103898000D01*
X107421000Y-102337000D02*
X110923000Y-102337000D01*
X98915900Y-103898000D02*
X99724800Y-104707000D01*
X97739600Y-103530000D02*
X97739200Y-103530400D01*
X64240416Y-114325400D02*
X63897216Y-114668600D01*
X97739200Y-103530000D02*
X97739600Y-103530000D01*
X107544000Y-126790000D02*
X107544000Y-127072000D01*
X111801000Y-103215000D02*
X111801000Y-108333000D01*
X67056000Y-114325400D02*
X64240416Y-114325400D01*
X110923000Y-102337000D02*
X111801000Y-103215000D01*
X62549700Y-115747832D02*
X62549700Y-117226500D01*
X61997400Y-115195532D02*
X62549700Y-115747832D01*
X62049700Y-118119000D02*
X62499200Y-118569000D01*
X62049700Y-117226000D02*
X62049700Y-117226500D01*
X62499200Y-118569000D02*
X62769100Y-118569000D01*
X62049700Y-117226500D02*
X62049700Y-118119000D01*
X101642000Y-103530000D02*
X101642000Y-103139000D01*
X77424100Y-101861200D02*
X74795300Y-104490000D01*
X102819000Y-103530000D02*
X102818800Y-103530000D01*
X53831900Y-127642000D02*
X56078700Y-129889000D01*
X52487500Y-132717000D02*
X52024400Y-133180000D01*
X101642000Y-103139000D02*
X100364200Y-101861200D01*
X74795300Y-104490000D02*
X60955600Y-104490000D01*
X100364200Y-101861200D02*
X77424100Y-101861200D01*
X52024400Y-133180000D02*
X50098400Y-133180000D01*
X56078700Y-129889000D02*
X56887200Y-129889000D01*
X102818800Y-103530000D02*
X102819200Y-103530400D01*
X102818800Y-103530000D02*
X101642000Y-103530000D01*
X59049700Y-133365000D02*
X58731800Y-133682000D01*
X55632784Y-131989000D02*
X49779300Y-131989000D01*
X103633000Y-101123000D02*
X76505200Y-101123000D01*
X56930584Y-133286800D02*
X55632784Y-131989000D01*
X59049700Y-132551500D02*
X59049700Y-133365000D01*
X57133784Y-133286800D02*
X56930584Y-133286800D01*
X74409000Y-103220000D02*
X61053100Y-103220000D01*
X57528984Y-133682000D02*
X57133784Y-133286800D01*
X76505200Y-101123000D02*
X74409000Y-103220000D01*
X58731800Y-133682000D02*
X57528984Y-133682000D01*
X49779300Y-131989000D02*
X49679000Y-132089000D01*
X61549700Y-118267000D02*
X60792300Y-119024000D01*
X76499100Y-100389000D02*
X74570700Y-102318000D01*
X106652000Y-100389000D02*
X76499100Y-100389000D01*
X74570700Y-102318000D02*
X64166300Y-102318000D01*
X61549700Y-117226500D02*
X61549700Y-118267000D01*
X60792300Y-119024000D02*
X58851800Y-119024000D01*
X106899000Y-100636000D02*
X106652000Y-100389000D01*
X61549700Y-117226000D02*
X61549700Y-117226500D01*
X57759200Y-117161000D02*
X57761300Y-117161000D01*
X57395600Y-116798000D02*
X57759200Y-117161000D01*
X61049700Y-117226500D02*
X61049700Y-117226000D01*
X58286600Y-118289000D02*
X60859700Y-118289000D01*
X56100300Y-116798000D02*
X57395600Y-116798000D01*
X60859700Y-118289000D02*
X61049700Y-118099000D01*
X57923600Y-117926000D02*
X58286600Y-118289000D01*
X61049700Y-118099000D02*
X61049700Y-117226500D01*
X57761300Y-117161000D02*
X57923600Y-117324000D01*
X57923600Y-117324000D02*
X57923600Y-117926000D01*
X60549700Y-117226000D02*
X60549700Y-117226500D01*
X60994200Y-115886000D02*
X60549700Y-116330000D01*
X112979000Y-103530000D02*
X112979200Y-103530200D01*
X60549700Y-116330000D02*
X60549700Y-117226000D01*
X112979000Y-103530000D02*
X109330000Y-99881000D01*
X109330000Y-99881000D02*
X75264900Y-99881000D01*
X75264900Y-99881000D02*
X74046900Y-101099000D01*
X61272400Y-115886000D02*
X60994200Y-115886000D01*
X112979200Y-103530200D02*
X112979200Y-103530400D01*
X60049700Y-117226000D02*
X60049700Y-114674000D01*
X60049700Y-117226000D02*
X60049700Y-117226500D01*
X102254000Y-102075000D02*
X102479000Y-101850000D01*
X60049700Y-114674000D02*
X60389700Y-114334000D01*
X109764000Y-101850000D02*
X110010000Y-101605000D01*
X102479000Y-101850000D02*
X109764000Y-101850000D01*
X115519000Y-103530000D02*
X115518800Y-103530000D01*
X110609000Y-99429300D02*
X70139000Y-99429300D01*
X59049700Y-116301000D02*
X57962800Y-115214000D01*
X115518800Y-103530000D02*
X114342000Y-103530000D01*
X114342000Y-103530000D02*
X114342000Y-103163000D01*
X115518800Y-103530000D02*
X115519200Y-103530400D01*
X114342000Y-103163000D02*
X110609000Y-99429300D01*
X70139000Y-99429300D02*
X69356200Y-100212000D01*
X59049700Y-117226000D02*
X59049700Y-116301000D01*
X59049700Y-117226000D02*
X59049700Y-117226500D01*
X56887200Y-118889000D02*
X56887200Y-117734000D01*
X56887200Y-117734000D02*
X57095500Y-117526000D01*
X110976000Y-141466000D02*
X110223000Y-142218000D01*
X110223000Y-142450000D02*
X110223300Y-142450300D01*
X121516000Y-141654000D02*
X121328000Y-141466000D01*
X121328000Y-141466000D02*
X110976000Y-141466000D01*
X110223000Y-142218000D02*
X110223000Y-142450000D01*
X110223300Y-142450300D02*
X110223300Y-143145200D01*
X110223000Y-142450000D02*
X110223000Y-142682000D01*
X108318000Y-142450000D02*
X108318000Y-142682000D01*
X109614000Y-140923000D02*
X108318000Y-142218000D01*
X108318300Y-142450300D02*
X108318300Y-143145200D01*
X133540000Y-140923000D02*
X109614000Y-140923000D01*
X108318000Y-142450000D02*
X108318300Y-142450300D01*
X108318000Y-142218000D02*
X108318000Y-142450000D01*
X117738000Y-145538000D02*
X111347000Y-145538000D01*
X118915000Y-144989000D02*
X118287000Y-144989000D01*
X119230000Y-145304000D02*
X118915000Y-144989000D01*
X109588000Y-143621000D02*
X109588000Y-143462000D01*
X109588000Y-143621000D02*
X109588300Y-143620700D01*
X125634000Y-145304000D02*
X119230000Y-145304000D01*
X109588300Y-143620700D02*
X109588300Y-143145200D01*
X109588000Y-143780000D02*
X109588000Y-143621000D01*
X118287000Y-144989000D02*
X117738000Y-145538000D01*
X111347000Y-145538000D02*
X109588000Y-143780000D01*
X112763000Y-142450000D02*
X112763300Y-142450300D01*
X112763000Y-142218000D02*
X112763000Y-142450000D01*
X115475000Y-142218000D02*
X112763000Y-142218000D01*
X112763000Y-142450000D02*
X112763000Y-142682000D01*
X112763300Y-142450300D02*
X112763300Y-143145200D01*
X118328000Y-146002000D02*
X110883000Y-146002000D01*
X110883000Y-146002000D02*
X108953000Y-144072000D01*
X118614000Y-145716000D02*
X118328000Y-146002000D01*
X108953300Y-143839700D02*
X108953300Y-143145200D01*
X108953000Y-144072000D02*
X108953000Y-143840000D01*
X108953000Y-143840000D02*
X108953000Y-143608000D01*
X108953000Y-143840000D02*
X108953300Y-143839700D01*
X111736000Y-145087000D02*
X110858000Y-144209000D01*
X122218000Y-143417000D02*
X120782000Y-144852000D01*
X125125000Y-102354000D02*
X131276000Y-102354000D01*
X123139600Y-103530000D02*
X123139200Y-103530400D01*
X110858300Y-143942700D02*
X110858300Y-143145200D01*
X120782000Y-144852000D02*
X119417000Y-144852000D01*
X116912000Y-145087000D02*
X111736000Y-145087000D01*
X117461000Y-144537000D02*
X116912000Y-145087000D01*
X119417000Y-144852000D02*
X119102000Y-144537000D01*
X131276000Y-102354000D02*
X133123000Y-104201000D01*
X124316000Y-103163000D02*
X125125000Y-102354000D01*
X133123000Y-104201000D02*
X133123000Y-105013000D01*
X123139000Y-103530000D02*
X123139600Y-103530000D01*
X124316000Y-103530000D02*
X124316000Y-103163000D01*
X133781000Y-143417000D02*
X122218000Y-143417000D01*
X110858000Y-144209000D02*
X110858000Y-143943000D01*
X123139600Y-103530000D02*
X124316000Y-103530000D01*
X119102000Y-144537000D02*
X117461000Y-144537000D01*
X110858000Y-143943000D02*
X110858300Y-143942700D01*
X110858000Y-143943000D02*
X110858000Y-143677000D01*
X129396000Y-106716000D02*
X131534000Y-108854000D01*
X121776000Y-103530000D02*
X121776000Y-103898000D01*
X122585000Y-104707000D02*
X128520000Y-104707000D01*
X129396000Y-105583000D02*
X129396000Y-106716000D01*
X126737000Y-126452000D02*
X126737000Y-129004000D01*
X126737000Y-129004000D02*
X126780000Y-129047000D01*
X131534000Y-121654000D02*
X126737000Y-126452000D01*
X112128000Y-144072000D02*
X112128000Y-143840000D01*
X112128000Y-143840000D02*
X112128000Y-143608000D01*
X121776000Y-103898000D02*
X122585000Y-104707000D01*
X118393000Y-142996000D02*
X117257000Y-142996000D01*
X112128300Y-143839700D02*
X112128300Y-143145200D01*
X112128000Y-143840000D02*
X112128300Y-143839700D01*
X120599600Y-103530000D02*
X120599200Y-103530400D01*
X128520000Y-104707000D02*
X129396000Y-105583000D01*
X120599000Y-103530000D02*
X120599600Y-103530000D01*
X116181000Y-144072000D02*
X112128000Y-144072000D01*
X117257000Y-142996000D02*
X116181000Y-144072000D01*
X120599600Y-103530000D02*
X121776000Y-103530000D01*
X131534000Y-108854000D02*
X131534000Y-121654000D01*
X120599600Y-106070000D02*
X121776000Y-106070000D01*
X111493300Y-143925700D02*
X111493300Y-143145200D01*
X125306000Y-109969000D02*
X127445000Y-109969000D01*
X111890000Y-144582000D02*
X111493000Y-144186000D01*
X111493000Y-144186000D02*
X111493000Y-143926000D01*
X121776000Y-106070000D02*
X121776000Y-106438000D01*
X111493000Y-143926000D02*
X111493300Y-143925700D01*
X120599000Y-106070000D02*
X120599600Y-106070000D01*
X121776000Y-106438000D02*
X125306000Y-109969000D01*
X116914000Y-144086000D02*
X116417000Y-144582000D01*
X119758000Y-144086000D02*
X116914000Y-144086000D01*
X111493000Y-143926000D02*
X111493000Y-143666000D01*
X116417000Y-144582000D02*
X111890000Y-144582000D01*
X119787000Y-144115000D02*
X119758000Y-144086000D01*
X120599600Y-106070000D02*
X120599200Y-106070400D01*
X60341600Y-120389000D02*
X61099500Y-119631000D01*
X61099500Y-119631000D02*
X62884500Y-119631000D01*
X70726900Y-143107000D02*
X61716300Y-143107000D01*
X56887200Y-120389000D02*
X60341600Y-120389000D01*
X72100300Y-132750000D02*
X71783400Y-133066000D01*
X59504500Y-124625000D02*
X68308300Y-124625000D01*
X56887200Y-121889000D02*
X57704500Y-121889000D01*
X71783400Y-133066000D02*
X71783400Y-133281000D01*
X134267000Y-141249000D02*
X133276000Y-142240000D01*
X95451000Y-135311000D02*
X130947000Y-135311000D01*
X57704500Y-121889000D02*
X57960400Y-122145000D01*
X68308300Y-124625000D02*
X69597000Y-125913000D01*
X72100300Y-132102000D02*
X72100300Y-132750000D01*
X70305800Y-125913000D02*
X70996100Y-126604000D01*
X133276000Y-142240000D02*
X131089400Y-142240000D01*
X130947000Y-135311000D02*
X134267000Y-138630000D01*
X94013800Y-133874000D02*
X95451000Y-135311000D01*
X57960400Y-122784000D02*
X58349700Y-123173000D01*
X69597000Y-125913000D02*
X70305800Y-125913000D01*
X134267000Y-138630000D02*
X134267000Y-141249000D01*
X70996100Y-126604000D02*
X70996100Y-130998000D01*
X72376100Y-133874000D02*
X94013800Y-133874000D01*
X131089400Y-142240000D02*
X131089000Y-142240000D01*
X58349700Y-123173000D02*
X58349700Y-123470000D01*
X57960400Y-122145000D02*
X57960400Y-122784000D01*
X70996100Y-130998000D02*
X72100300Y-132102000D01*
X58349700Y-123470000D02*
X59504500Y-124625000D01*
X71783400Y-133281000D02*
X72376100Y-133874000D01*
X63166600Y-129743000D02*
X63520800Y-129389000D01*
X56887200Y-129389000D02*
X57706400Y-129389000D01*
X128478900Y-137230500D02*
X128549400Y-137160000D01*
X58060600Y-129743000D02*
X63166600Y-129743000D01*
X128478500Y-137230500D02*
X128478900Y-137230500D01*
X57706400Y-129389000D02*
X58060600Y-129743000D01*
X128455000Y-137254000D02*
X128478500Y-137230500D01*
X102394000Y-137254000D02*
X128455000Y-137254000D01*
X128478500Y-137230500D02*
X128502000Y-137207000D01*
X55523400Y-120003000D02*
X55637800Y-119889000D01*
X55637800Y-119889000D02*
X56887200Y-119889000D01*
X56887200Y-121389000D02*
X55979200Y-121389000D01*
X112307000Y-154912000D02*
X114139000Y-153080000D01*
X47638600Y-154912000D02*
X112307000Y-154912000D01*
X55979200Y-121389000D02*
X54813200Y-122555000D01*
X55530200Y-118880000D02*
X56039700Y-119389000D01*
X56039700Y-119389000D02*
X56887200Y-119389000D01*
X56887200Y-122389000D02*
X56046000Y-122389000D01*
X104754000Y-139700000D02*
X100503000Y-143951000D01*
X128549000Y-139700000D02*
X104754000Y-139700000D01*
X56046000Y-122389000D02*
X54864000Y-123571000D01*
X94858500Y-150220000D02*
X56873100Y-150220000D01*
X100503000Y-144575000D02*
X94858500Y-150220000D01*
X100503000Y-143951000D02*
X100503000Y-144575000D01*
X128549000Y-139700000D02*
X128549400Y-139700000D01*
X56685209Y-133975000D02*
X56750889Y-134040680D01*
X70621700Y-121688000D02*
X61833900Y-121688000D01*
X46771400Y-133975000D02*
X56685209Y-133975000D01*
X70921200Y-121389000D02*
X70621700Y-121688000D01*
X72212200Y-121389000D02*
X70921200Y-121389000D01*
X61833900Y-121688000D02*
X61064600Y-120919000D01*
X41148000Y-139598400D02*
X46771400Y-133975000D01*
X61064600Y-120919000D02*
X60839000Y-120919000D01*
X72212200Y-120889000D02*
X70159500Y-120889000D01*
X54047600Y-145477000D02*
X52566300Y-146958000D01*
X62779300Y-145477000D02*
X54047600Y-145477000D01*
X54753836Y-135641936D02*
X64520619Y-135641936D01*
X46940400Y-138886000D02*
X46940400Y-137272000D01*
X53561900Y-134450000D02*
X54753836Y-135641936D01*
X49762500Y-134450000D02*
X53561900Y-134450000D01*
X72212200Y-120389000D02*
X73291800Y-120389000D01*
X46940400Y-137272000D02*
X49762500Y-134450000D01*
X73291800Y-120389000D02*
X73565300Y-120662000D01*
X41148000Y-144678400D02*
X46940400Y-138886000D01*
X73826100Y-119889000D02*
X75370200Y-121433000D01*
X63737000Y-148060000D02*
X51465200Y-148060000D01*
X72212200Y-119889000D02*
X73826100Y-119889000D01*
X75370200Y-121433000D02*
X75370200Y-123987000D01*
X55570900Y-138125000D02*
X68067900Y-138125000D01*
X41667700Y-129283500D02*
X41427400Y-129043000D01*
X73274700Y-130132000D02*
X73274700Y-130128000D01*
X54206000Y-130004000D02*
X42388800Y-130004000D01*
X41908000Y-129524000D02*
X41667700Y-129283500D01*
X73017500Y-130389000D02*
X73274700Y-130132000D01*
X41908100Y-129524000D02*
X41908000Y-129524000D01*
X54186200Y-136740000D02*
X55570900Y-138125000D01*
X73609200Y-129794000D02*
X76504800Y-129794000D01*
X41427400Y-129043000D02*
X41908100Y-129524000D01*
X72212200Y-130389000D02*
X73017500Y-130389000D01*
X73274700Y-130128000D02*
X73609200Y-129794000D01*
X76504800Y-129794000D02*
X76631800Y-129921000D01*
X41427400Y-129043200D02*
X41427400Y-129042900D01*
X41667700Y-129283500D02*
X41427400Y-129043200D01*
X42388800Y-130004000D02*
X41908100Y-129524000D01*
X71016300Y-125889000D02*
X70101500Y-124974000D01*
X108814000Y-127982000D02*
X106646000Y-130150000D01*
X120243600Y-112395000D02*
X119117000Y-112395000D01*
X115727000Y-112395000D02*
X115445500Y-112395000D01*
X115727000Y-112395000D02*
X115445500Y-112395000D01*
X116290000Y-112113000D02*
X116290000Y-112395000D01*
X108814000Y-126001000D02*
X108814000Y-127982000D01*
X72212200Y-125889000D02*
X71016300Y-125889000D01*
X116290000Y-112395000D02*
X115727000Y-112395000D01*
X119117000Y-112113000D02*
X118272000Y-111268000D01*
X115445500Y-112395000D02*
X115164000Y-112395000D01*
X115164000Y-112395000D02*
X115164000Y-119651000D01*
X115164000Y-119651000D02*
X108814000Y-126001000D01*
X119117000Y-112395000D02*
X119117000Y-112113000D01*
X115445500Y-112395000D02*
X115164000Y-112395000D01*
X118272000Y-111268000D02*
X117135000Y-111268000D01*
X120244000Y-112395000D02*
X120243600Y-112395000D01*
X106646000Y-130150000D02*
X88504600Y-130150000D01*
X117135000Y-111268000D02*
X116290000Y-112113000D01*
X115164000Y-112395000D02*
X115163600Y-112395000D01*
X61051700Y-134584000D02*
X61811200Y-134584000D01*
X60049700Y-133582000D02*
X61051700Y-134584000D01*
X60049700Y-132551500D02*
X60049700Y-133582000D01*
X103270000Y-109518000D02*
X103156000Y-109404000D01*
X103156000Y-109404000D02*
X71354400Y-109404000D01*
X71354400Y-109404000D02*
X71257100Y-109501000D01*
X84458700Y-121177000D02*
X82184500Y-123451000D01*
X82184500Y-123451000D02*
X76251300Y-123451000D01*
X63018608Y-134748908D02*
X65072892Y-134748908D01*
X102463800Y-112394800D02*
X102464000Y-112395000D01*
X86081900Y-112490000D02*
X86634400Y-111937000D01*
X99224300Y-110813000D02*
X100881000Y-110813000D01*
X60549700Y-133429000D02*
X60978000Y-133858000D01*
X102463600Y-112395000D02*
X102463800Y-112394800D01*
X100881000Y-110813000D02*
X102463800Y-112394800D01*
X60978000Y-133858000D02*
X62127700Y-133858000D01*
X62127700Y-133858000D02*
X63018608Y-134748908D01*
X90205800Y-111937000D02*
X90526300Y-112258000D01*
X97779500Y-112258000D02*
X99224300Y-110813000D01*
X60549700Y-132551500D02*
X60549700Y-133429000D01*
X90526300Y-112258000D02*
X97779500Y-112258000D01*
X86634400Y-111937000D02*
X90205800Y-111937000D01*
X107048300Y-147650300D02*
X107048300Y-148345200D01*
X62049700Y-132551500D02*
X62049700Y-132552000D01*
X63143700Y-131072000D02*
X62660100Y-131072000D01*
X107048000Y-147650000D02*
X107048300Y-147650300D01*
X106036000Y-147418000D02*
X107048000Y-147418000D01*
X62049700Y-131683000D02*
X62049700Y-132551500D01*
X105253000Y-146635000D02*
X106036000Y-147418000D01*
X107048000Y-147650000D02*
X107048000Y-147882000D01*
X107048000Y-147418000D02*
X107048000Y-147650000D01*
X62660100Y-131072000D02*
X62049700Y-131683000D01*
X111556000Y-128898000D02*
X111408000Y-129046000D01*
X59067300Y-127335000D02*
X59342400Y-127610000D01*
X108953300Y-149039700D02*
X108953300Y-148345200D01*
X117690000Y-121155000D02*
X117690000Y-123159000D01*
X125323600Y-112958100D02*
X125323600Y-112395000D01*
X108953000Y-149040000D02*
X108953300Y-149039700D01*
X67790300Y-141353000D02*
X59781300Y-141353000D01*
X125324000Y-113522000D02*
X117690000Y-121155000D01*
X58381900Y-127335000D02*
X59067300Y-127335000D01*
X121376000Y-128149000D02*
X120627000Y-128898000D01*
X72855300Y-136288000D02*
X73930500Y-137363200D01*
X125324000Y-112958500D02*
X125323600Y-112958100D01*
X108953000Y-149040000D02*
X108953000Y-148808000D01*
X104180000Y-149272000D02*
X108953000Y-149272000D01*
X73930500Y-137363200D02*
X89689900Y-137363200D01*
X89689900Y-137363200D02*
X90996750Y-136056350D01*
X125324000Y-112958500D02*
X125324000Y-113522000D01*
X121376000Y-126845000D02*
X121376000Y-128149000D01*
X120627000Y-128898000D02*
X111556000Y-128898000D01*
X108953000Y-149272000D02*
X108953000Y-149040000D01*
X57936100Y-126889000D02*
X58381900Y-127335000D01*
X56887200Y-126889000D02*
X57936100Y-126889000D01*
X117690000Y-123159000D02*
X121376000Y-126845000D01*
X125324000Y-112395000D02*
X125324000Y-112958500D01*
X101412000Y-144072000D02*
X107683000Y-144072000D01*
X63216700Y-133614000D02*
X65262600Y-133614000D01*
X107683000Y-144072000D02*
X107683000Y-143608000D01*
X65262600Y-133614000D02*
X66344800Y-134696200D01*
X107683000Y-143145500D02*
X107683000Y-143608000D01*
X63049700Y-132551500D02*
X63049700Y-133447000D01*
X107683300Y-143145200D02*
X107683000Y-143145500D01*
X63049700Y-133447000D02*
X63216700Y-133614000D01*
X130403600Y-112395000D02*
X130404000Y-112395400D01*
X124126000Y-127944000D02*
X124126000Y-119799000D01*
X107593000Y-146829000D02*
X107593000Y-148255000D01*
X58943200Y-125980000D02*
X66163500Y-125980000D01*
X108936000Y-146208000D02*
X108214000Y-146208000D01*
X115425000Y-131403000D02*
X116476000Y-130352000D01*
X66163500Y-125980000D02*
X66438600Y-126255000D01*
X107615500Y-148277500D02*
X107615600Y-148277500D01*
X107593000Y-148255000D02*
X107615500Y-148277500D01*
X58352500Y-125389000D02*
X58943200Y-125980000D01*
X107615600Y-148277500D02*
X107683300Y-148345200D01*
X116476000Y-130352000D02*
X121718000Y-130352000D01*
X130404000Y-112395400D02*
X130404000Y-112958000D01*
X121718000Y-130352000D02*
X124126000Y-127944000D01*
X130404000Y-113522000D02*
X130404000Y-112958000D01*
X56887200Y-125389000D02*
X58352500Y-125389000D01*
X108214000Y-146208000D02*
X107593000Y-146829000D01*
X124126000Y-119799000D02*
X130404000Y-113522000D01*
X115425000Y-131403000D02*
X90805800Y-131403000D01*
X115425000Y-131403000D02*
X115425000Y-132019000D01*
X107615500Y-148277500D02*
X107638000Y-148300000D01*
X56887200Y-127389000D02*
X57797300Y-127389000D01*
X121657000Y-113522000D02*
X122784000Y-113522000D01*
X122784000Y-113240000D02*
X122783600Y-113239600D01*
X109588000Y-147435000D02*
X109588300Y-147435300D01*
X75648000Y-131964000D02*
X75057000Y-131373000D01*
X118962000Y-129625000D02*
X118814000Y-129772000D01*
X118814000Y-129772000D02*
X109581000Y-129772000D01*
X65643500Y-130033000D02*
X68310100Y-130033000D01*
X109581000Y-129772000D02*
X108677000Y-130676000D01*
X108677000Y-130676000D02*
X90324000Y-130676000D01*
X122783600Y-113239600D02*
X122783600Y-112395000D01*
X59068000Y-128618000D02*
X64227900Y-128618000D01*
X109588300Y-147435300D02*
X109588300Y-148345200D01*
X64227900Y-128618000D02*
X65643500Y-130033000D01*
X58554600Y-128105000D02*
X59068000Y-128618000D01*
X90324000Y-130676000D02*
X89036200Y-131964000D01*
X122784000Y-113522000D02*
X122784000Y-113240000D01*
X58512700Y-128105000D02*
X58554600Y-128105000D01*
X57797300Y-127389000D02*
X58512700Y-128105000D01*
X109588000Y-147132000D02*
X109588000Y-147435000D01*
X89036200Y-131964000D02*
X75648000Y-131964000D01*
X122784000Y-113240000D02*
X122784000Y-112958000D01*
X116352000Y-118827000D02*
X121657000Y-113522000D01*
X109588000Y-147435000D02*
X109588000Y-147738000D01*
X126108000Y-131086000D02*
X117552000Y-131086000D01*
X110223000Y-149272000D02*
X110223000Y-149040000D01*
X58491300Y-124889000D02*
X59130300Y-125528000D01*
X56887200Y-124889000D02*
X58491300Y-124889000D01*
X80036304Y-132570000D02*
X73570700Y-132570000D01*
X117552000Y-131086000D02*
X115889000Y-132749000D01*
X67367000Y-125528000D02*
X68930700Y-127092000D01*
X110223000Y-149040000D02*
X110223300Y-149039700D01*
X130404000Y-127635000D02*
X130403600Y-127635000D01*
X110223000Y-149040000D02*
X110223000Y-148808000D01*
X113954000Y-148732000D02*
X113415000Y-149272000D01*
X130403600Y-127635000D02*
X129277000Y-127635000D01*
X129277000Y-127635000D02*
X129277000Y-127917000D01*
X129277000Y-127917000D02*
X126108000Y-131086000D01*
X115889000Y-132749000D02*
X80215304Y-132749000D01*
X110223300Y-149039700D02*
X110223300Y-148345200D01*
X113415000Y-149272000D02*
X110223000Y-149272000D01*
X80215304Y-132749000D02*
X80036304Y-132570000D01*
X68930700Y-127092000D02*
X69817700Y-127092000D01*
X59130300Y-125528000D02*
X67367000Y-125528000D01*
X65400500Y-126883000D02*
X67823900Y-129306000D01*
X108318000Y-147444000D02*
X108318000Y-147744000D01*
X93597200Y-134325000D02*
X95309400Y-136038000D01*
X127864000Y-112395000D02*
X127863600Y-112395000D01*
X72157300Y-134325000D02*
X93597200Y-134325000D01*
X71331700Y-133500000D02*
X72157300Y-134325000D01*
X58569000Y-126883000D02*
X65400500Y-126883000D01*
X108320000Y-147142000D02*
X108318000Y-147144000D01*
X67823900Y-129306000D02*
X69182300Y-129306000D01*
X108318300Y-147444300D02*
X108318300Y-148345200D01*
X108318000Y-147444000D02*
X108318300Y-147444300D01*
X126737000Y-112395000D02*
X126737000Y-113245000D01*
X108318000Y-147144000D02*
X108318000Y-147444000D01*
X56887200Y-126389000D02*
X56902600Y-126374000D01*
X95309400Y-136038000D02*
X107394000Y-136038000D01*
X71331700Y-132490000D02*
X71331700Y-133500000D01*
X126737000Y-113245000D02*
X118438000Y-121543000D01*
X69182300Y-129306000D02*
X69326900Y-129451000D01*
X56902600Y-126374000D02*
X58059500Y-126374000D01*
X58059500Y-126374000D02*
X58569000Y-126883000D01*
X127863600Y-112395000D02*
X126737000Y-112395000D01*
X110858000Y-147488000D02*
X110858300Y-147488300D01*
X110759000Y-147103000D02*
X110858000Y-147202000D01*
X110858000Y-147488000D02*
X110858000Y-147774000D01*
X132944000Y-120959000D02*
X132944000Y-116677000D01*
X66137700Y-126982000D02*
X68159500Y-126982000D01*
X65587700Y-126431000D02*
X65711900Y-126556000D01*
X131674000Y-122229000D02*
X132944000Y-120959000D01*
X68159500Y-126982000D02*
X69175600Y-127998000D01*
X58213700Y-125889000D02*
X58756100Y-126431000D01*
X72956700Y-133373000D02*
X72731000Y-133147000D01*
X132943600Y-113521700D02*
X132944000Y-113522100D01*
X132944000Y-113522100D02*
X132944000Y-116677000D01*
X114094000Y-134385000D02*
X125293000Y-134385000D01*
X65711900Y-126556000D02*
X66137700Y-126982000D01*
X114094000Y-134385000D02*
X113081000Y-133373000D01*
X56887200Y-125889000D02*
X58213700Y-125889000D01*
X58756100Y-126431000D02*
X65587700Y-126431000D01*
X69175600Y-127998000D02*
X69306700Y-127998000D01*
X132943600Y-112395000D02*
X132943600Y-113521700D01*
X125293000Y-134385000D02*
X131674000Y-128004000D01*
X113081000Y-133373000D02*
X72956700Y-133373000D01*
X110858000Y-147202000D02*
X110858000Y-147488000D01*
X110858300Y-147488300D02*
X110858300Y-148345200D01*
X131674000Y-128004000D02*
X131674000Y-122229000D01*
X111493000Y-147603000D02*
X111493300Y-147603300D01*
X115054000Y-146623000D02*
X114936000Y-146505000D01*
X116927000Y-146623000D02*
X115054000Y-146623000D01*
X54215100Y-124389000D02*
X56887200Y-124389000D01*
X116928000Y-146622000D02*
X116927000Y-146623000D01*
X118642000Y-146718000D02*
X118547000Y-146622000D01*
X118547000Y-146622000D02*
X116928000Y-146622000D01*
X114936000Y-146505000D02*
X112345000Y-146505000D01*
X112345000Y-146505000D02*
X111493000Y-147356000D01*
X111493300Y-147603300D02*
X111493300Y-148345200D01*
X111493000Y-147356000D02*
X111493000Y-147603000D01*
X122862000Y-146718000D02*
X123060000Y-146915000D01*
X118642000Y-146718000D02*
X122862000Y-146718000D01*
X111493000Y-147603000D02*
X111493000Y-147850000D01*
X117229000Y-147349000D02*
X116960000Y-147079000D01*
X114748000Y-146957000D02*
X112590000Y-146957000D01*
X67554200Y-125076000D02*
X68842900Y-126365000D01*
X58130100Y-123889000D02*
X59317400Y-125076000D01*
X59317400Y-125076000D02*
X67554200Y-125076000D01*
X112128300Y-147650300D02*
X112128300Y-148345200D01*
X70118700Y-126365000D02*
X70544400Y-126791000D01*
X112128000Y-147650000D02*
X112128000Y-147882000D01*
X56887200Y-123889000D02*
X58130100Y-123889000D01*
X116960000Y-147079000D02*
X114871000Y-147079000D01*
X114871000Y-147079000D02*
X114748000Y-146957000D01*
X70544400Y-126791000D02*
X70544400Y-129680000D01*
X112128000Y-147418000D02*
X112128000Y-147650000D01*
X112590000Y-146957000D02*
X112128000Y-147418000D01*
X112128000Y-147650000D02*
X112128300Y-147650300D01*
X68842900Y-126365000D02*
X70118700Y-126365000D01*
X70544400Y-129680000D02*
X70263700Y-129961000D01*
X38608000Y-147218400D02*
X38608000Y-151314900D01*
X38608000Y-151314900D02*
X38608000Y-151315000D01*
X38608000Y-147218000D02*
X38608000Y-147218400D01*
X39395400Y-116073000D02*
X39372500Y-116050000D01*
X39395400Y-127043000D02*
X39395400Y-127042900D01*
X39372500Y-116050000D02*
X39372400Y-116050000D01*
X39361000Y-116038500D02*
X39349600Y-116027000D01*
X39361000Y-116038500D02*
X39360900Y-116038500D01*
X39360900Y-116038500D02*
X39349600Y-116027200D01*
X39372400Y-116050000D02*
X39361000Y-116038500D01*
X39349600Y-116027000D02*
X39372500Y-116050000D01*
X39395400Y-127042900D02*
X39395400Y-116073000D01*
X41899800Y-123715000D02*
X42018900Y-123834000D01*
X41899800Y-120982500D02*
X41899800Y-123715000D01*
X41899800Y-120982000D02*
X41899800Y-120982500D01*
X41267300Y-126883000D02*
X41427400Y-127043000D01*
X43624200Y-120384000D02*
X43639100Y-120369000D01*
X43639100Y-120369000D02*
X43889100Y-120369000D01*
X41573800Y-119862000D02*
X41267300Y-120168000D01*
X42774100Y-119957000D02*
X42679100Y-119862000D01*
X43624200Y-120807000D02*
X43624200Y-120384000D01*
X41427400Y-127042900D02*
X41427400Y-127043000D01*
X43889100Y-119466000D02*
X43264900Y-119466000D01*
X41267300Y-120168000D02*
X41267300Y-126883000D01*
X43889100Y-120369000D02*
X44153700Y-120105000D01*
X42679100Y-119862000D02*
X41573800Y-119862000D01*
X44153700Y-120105000D02*
X44153700Y-119731000D01*
X44153700Y-119731000D02*
X43889100Y-119466000D01*
X43264900Y-119466000D02*
X42774100Y-119957000D01*
X43799800Y-120982000D02*
X43624200Y-120807000D01*
X43799800Y-120982500D02*
X43799800Y-120982000D01*
X130778400Y-137471000D02*
X131089400Y-137160000D01*
X129844000Y-138405000D02*
X130466000Y-137782000D01*
X99301400Y-143904000D02*
X99301500Y-143903900D01*
X131089000Y-137160000D02*
X130466000Y-137782000D01*
X130466000Y-137782000D02*
X130467000Y-137782000D01*
X130467000Y-137782000D02*
X130778000Y-137471000D01*
X99301300Y-143903700D02*
X99301500Y-143903900D01*
X99301500Y-143903900D02*
X104800000Y-138405000D01*
X104800000Y-138405000D02*
X129844000Y-138405000D01*
X130778000Y-137471000D02*
X130778400Y-137471000D01*
X130778000Y-137471000D02*
X131089000Y-137160000D01*
X47576700Y-142877000D02*
X47576700Y-142877300D01*
X72212200Y-122389000D02*
X61691500Y-122389000D01*
X61691500Y-122389000D02*
X61223500Y-121921000D01*
X61223500Y-121921000D02*
X60943800Y-121921000D01*
X47576700Y-142877000D02*
X48681600Y-141772000D01*
X48681600Y-141772000D02*
X50705500Y-141772000D01*
X72212200Y-122889000D02*
X61016600Y-122889000D01*
X53229800Y-142877000D02*
X50434500Y-142877000D01*
X50434500Y-142877000D02*
X50434200Y-142877300D01*
X61016600Y-122889000D02*
X60982800Y-122923000D01*
X62534800Y-123389000D02*
X62202600Y-123721000D01*
X47581100Y-140587000D02*
X47581000Y-140587000D01*
X47581000Y-140587000D02*
X47513200Y-140654800D01*
X47785500Y-140383000D02*
X47785400Y-140383000D01*
X47581100Y-140587000D02*
X47513200Y-140655000D01*
X53027500Y-135176000D02*
X49715400Y-135176000D01*
X60269900Y-123721000D02*
X59529300Y-122981000D01*
X72212200Y-123389000D02*
X62534800Y-123389000D01*
X47649000Y-140519000D02*
X47581100Y-140587000D01*
X62202600Y-123721000D02*
X60269900Y-123721000D01*
X47649300Y-140519000D02*
X47649000Y-140519000D01*
X47513200Y-140655000D02*
X47649300Y-140519000D01*
X47785500Y-137106000D02*
X47785500Y-140383000D01*
X49715400Y-135176000D02*
X47785500Y-137106000D01*
X47785400Y-140383000D02*
X47649300Y-140519000D01*
X58801400Y-122463000D02*
X58706100Y-122368000D01*
X51982700Y-139468000D02*
X50782700Y-140668000D01*
X50782700Y-140668000D02*
X50434700Y-140668000D01*
X50434700Y-140668000D02*
X50434200Y-140667500D01*
X72212200Y-123889000D02*
X67743300Y-123889000D01*
X67743300Y-123889000D02*
X67459400Y-124173000D01*
X67459400Y-124173000D02*
X59691600Y-124173000D01*
X59691600Y-124173000D02*
X58801400Y-123283000D01*
X58801400Y-123283000D02*
X58801400Y-122463000D01*
M02*
